<svg id="pdf" xmlns="http://www.w3.org/2000/svg" width="24" height="24" viewBox="0 0 24 24">
  <rect id="bound" width="24" height="24" fill="none"/>
  <path id="Icon_metro-file-pdf" data-name="Icon metro-file-pdf" d="M15.951,5.6a2.073,2.073,0,0,1,.438.679,2.025,2.025,0,0,1,.182.786V17.346a.818.818,0,0,1-.255.607.853.853,0,0,1-.62.25H3.446a.853.853,0,0,1-.62-.25.818.818,0,0,1-.255-.607V3.061a.818.818,0,0,1,.255-.607.853.853,0,0,1,.62-.25h8.167a2.454,2.454,0,0,1,1.495.607ZM11.9,3.418V6.775h3.427a.97.97,0,0,0-.2-.366L12.278,3.614a1,1,0,0,0-.374-.2Zm3.5,13.643V7.918H11.612a.853.853,0,0,1-.62-.25.818.818,0,0,1-.255-.607V3.346h-7V17.061H15.4Zm-4.685-5.295a6.947,6.947,0,0,0,.766.5,9.231,9.231,0,0,1,1.066-.062q1.34,0,1.613.438a.424.424,0,0,1,.018.464.026.026,0,0,1-.009.018l-.018.018v.009q-.055.339-.647.339a3.831,3.831,0,0,1-1.048-.179,6.726,6.726,0,0,1-1.185-.473,16.708,16.708,0,0,0-3.573.741Q6.308,15.918,5.5,15.918a.539.539,0,0,1-.255-.062l-.219-.107q-.009-.009-.055-.045a.363.363,0,0,1-.055-.321,1.932,1.932,0,0,1,.51-.817,4.4,4.4,0,0,1,1.2-.862.134.134,0,0,1,.21.054.051.051,0,0,1,.018.036q.474-.759.975-1.759a13.464,13.464,0,0,0,.948-2.339A7.087,7.087,0,0,1,8.5,8.27a3.4,3.4,0,0,1,.059-1.138q.1-.357.383-.357h.2a.388.388,0,0,1,.319.134.7.7,0,0,1,.082.607.192.192,0,0,1-.036.071.228.228,0,0,1,.009.071v.268a11.458,11.458,0,0,1-.128,1.714,4.506,4.506,0,0,0,1.331,2.125Zm-5.25,3.67a3.972,3.972,0,0,0,1.249-1.411,5.15,5.15,0,0,0-.8.75A2.963,2.963,0,0,0,5.469,15.436ZM9.1,7.221A2.6,2.6,0,0,0,9.079,8.4q.009-.062.064-.393,0-.027.064-.384a.2.2,0,0,1,.036-.071.026.026,0,0,1-.009-.018.018.018,0,0,0,0-.013.018.018,0,0,1,0-.013.508.508,0,0,0-.118-.321A.026.026,0,0,1,9.1,7.2v.018Zm-1.13,5.9a13.584,13.584,0,0,1,2.589-.723,1.375,1.375,0,0,1-.118-.085,1.624,1.624,0,0,1-.146-.121,4.735,4.735,0,0,1-1.158-1.571,11.8,11.8,0,0,1-.757,1.759q-.273.5-.41.741Zm5.888-.143a2.219,2.219,0,0,0-1.276-.214,3.509,3.509,0,0,0,1.13.25.9.9,0,0,0,.164-.009q0-.009-.018-.027Z" transform="translate(2.43 1.797)" fill="#5e6360"/>
</svg>
