<svg id="campus" xmlns="http://www.w3.org/2000/svg" width="24" height="24" viewBox="0 0 24 24">
  <rect id="bound" width="24" height="24" fill="none"/>
  <g id="Group_718" data-name="Group 718" transform="translate(-2)">
    <path id="Path_229" data-name="Path 229" d="M14.615,4H7.846A1.784,1.784,0,0,0,6,5.714V18.286A1.784,1.784,0,0,0,7.846,20H20.154A1.784,1.784,0,0,0,22,18.286V12a1.784,1.784,0,0,0-1.846-1.714H16.462V5.714A1.784,1.784,0,0,0,14.615,4Zm-8,14.286V5.714A1.189,1.189,0,0,1,7.846,4.571h6.769a1.189,1.189,0,0,1,1.231,1.143V19.429H13.385V15.714a.3.3,0,0,0-.308-.286H9.385a.3.3,0,0,0-.308.286v3.714H7.846A1.189,1.189,0,0,1,6.615,18.286Zm3.077,1.143V16h3.077v3.429Zm10.462-8.571A1.189,1.189,0,0,1,21.385,12v6.286a1.189,1.189,0,0,1-1.231,1.143H16.462V10.857Z" fill="#030404" stroke="#030404" stroke-width="1"/>
    <path id="Path_230" data-name="Path 230" d="M12.314,11.73h1.254a.3.3,0,0,0,.314-.288V10.288A.3.3,0,0,0,13.568,10H12.314a.3.3,0,0,0-.314.288v1.153A.3.3,0,0,0,12.314,11.73Zm.314-1.153h.627v.577h-.627Zm-.314,4.036h1.254a.3.3,0,0,0,.314-.288V13.171a.3.3,0,0,0-.314-.288H12.314a.3.3,0,0,0-.314.288v1.153A.3.3,0,0,0,12.314,14.613Zm.314-1.153h.627v.577h-.627Zm.941,4.036a.3.3,0,0,0,.314-.288V16.054a.3.3,0,0,0-.314-.288H12.314a.3.3,0,0,0-.314.288v1.153a.3.3,0,0,0,.314.288Zm-.941-1.153h.627v.577h-.627Zm4.7-4.613h1.254a.3.3,0,0,0,.314-.288V10.288A.3.3,0,0,0,18.584,10H17.33a.3.3,0,0,0-.314.288v1.153A.3.3,0,0,0,17.33,11.73Zm.314-1.153h.627v.577h-.627Zm-.314,4.036h1.254a.3.3,0,0,0,.314-.288V13.171a.3.3,0,0,0-.314-.288H17.33a.3.3,0,0,0-.314.288v1.153A.3.3,0,0,0,17.33,14.613Zm.314-1.153h.627v.577h-.627ZM17.33,17.5h1.254a.3.3,0,0,0,.314-.288V16.054a.3.3,0,0,0-.314-.288H17.33a.3.3,0,0,0-.314.288v1.153A.3.3,0,0,0,17.33,17.5Zm.314-1.153h.627v.577h-.627Zm5.33,1.73h1.254a.3.3,0,0,0,.314-.288V16.631a.3.3,0,0,0-.314-.288H22.973a.3.3,0,0,0-.314.288v1.153A.3.3,0,0,0,22.973,18.072Zm.314-1.153h.627V17.5h-.627Zm-.314,4.036h1.254a.3.3,0,0,0,.314-.288V19.514a.3.3,0,0,0-.314-.288H22.973a.3.3,0,0,0-.314.288v1.153A.3.3,0,0,0,22.973,20.955Zm.314-1.153h.627v.577h-.627Z" transform="translate(-4.27 -4.27)" fill="#030404" stroke="#030404" stroke-width="1"/>
  </g>
</svg>
