<svg id="certificate" xmlns="http://www.w3.org/2000/svg" width="24" height="24" viewBox="0 0 24 24">
  <rect id="bound" width="24" height="24" fill="none"/>
  <g id="Icon_open-badge" data-name="Icon open-badge" transform="translate(8 4)" fill="none">
    <path d="M4,0A4,4,0,1,0,8,4,4.012,4.012,0,0,0,4,0ZM2,9.62V16l2-2,2,2V9.62A6.021,6.021,0,0,1,4,10,6.021,6.021,0,0,1,2,9.62Z" stroke="none"/>
    <path d="M 4 2 C 2.897200107574463 2 2 2.897199630737305 2 4 C 2 5.102800369262695 2.897200107574463 6 4 6 C 5.102799892425537 6 6 5.102800369262695 6 4 C 6 2.897199630737305 5.102799892425537 2 4 2 M 4 0 C 6.199999809265137 0 8 1.800000190734863 8 4 C 8 6.199999809265137 6.199999809265137 8 4 8 C 1.800000190734863 8 0 6.199999809265137 0 4 C 0 1.800000190734863 1.800000190734863 0 4 0 Z M 2 9.619999885559082 C 2.619999885559082 9.840000152587891 3.300000190734863 10 4 10 C 4.699999809265137 10 5.380000114440918 9.840000152587891 6 9.619999885559082 L 6 16 L 4 14 L 2 16 L 2 9.619999885559082 Z" stroke="none" fill="#030404"/>
  </g>
</svg>
