<svg xmlns="http://www.w3.org/2000/svg" width="24" height="24" viewBox="0 0 24 24">
  <g id="Group_732" data-name="Group 732" transform="translate(-1208 -571)">
    <g id="Group_726" data-name="Group 726" transform="translate(1 -6)">
      <rect id="Rectangle_196" data-name="Rectangle 196" width="24" height="24" transform="translate(1207 577)" fill="rgba(255,255,255,0)"/>
      <g id="noun-grid-view-312063" transform="translate(1458.5 226.5)">
        <path id="Path_180" data-name="Path 180" d="M-234.232,368.5h-4.1a.725.725,0,0,1-.732-.732v-4.1a.725.725,0,0,1,.732-.732h4.1a.725.725,0,0,1,.732.732v4.1A.725.725,0,0,1-234.232,368.5Zm0-6.439h-4.1a.725.725,0,0,1-.732-.732v-4.1a.725.725,0,0,1,.732-.732h4.1a.725.725,0,0,1,.732.732v4.1A.725.725,0,0,1-234.232,362.061Zm-6.439,6.439h-4.1a.725.725,0,0,1-.732-.732v-4.1a.725.725,0,0,1,.732-.732h4.1a.725.725,0,0,1,.732.732v4.1A.725.725,0,0,1-240.671,368.5Zm0-6.439h-4.1a.725.725,0,0,1-.732-.732v-4.1a.725.725,0,0,1,.732-.732h4.1a.725.725,0,0,1,.732.732v4.1A.725.725,0,0,1-240.671,362.061Z" fill="#a5a5a5" fill-rule="evenodd"/>
      </g>
    </g>
  </g>
</svg>
