<svg xmlns="http://www.w3.org/2000/svg" width="21" height="21" viewBox="0 0 21 21">
  <g id="instagram" transform="translate(0.5 0.5)">
    <circle id="Ellipse_6" data-name="Ellipse 6" cx="10" cy="10" r="10" transform="translate(0 0)" fill="none" stroke="#fff" stroke-width="1"/>
    <path id="Path_46" data-name="Path 46" d="M32.605,22.506H24.4a1.883,1.883,0,0,0-1.882,1.884V32.6A1.883,1.883,0,0,0,24.4,34.481h8.209A1.883,1.883,0,0,0,34.488,32.6V24.39A1.883,1.883,0,0,0,32.605,22.506Zm-1.273,1.385,1.5,0h0a.259.259,0,0,1,.262.258v1.51a.259.259,0,0,1-.26.26l-1.5.005a.259.259,0,0,1-.26-.258l-.005-1.51A.259.259,0,0,1,31.332,23.891Zm-4.667,3.574a2.352,2.352,0,0,1,.127-.2,2.1,2.1,0,0,1,3.417,0,2.125,2.125,0,0,1,.127.2,2.087,2.087,0,0,1,.273,1.027,2.108,2.108,0,0,1-4.216,0A2.078,2.078,0,0,1,26.666,27.465Zm6.656,4.7a1.15,1.15,0,0,1-1.148,1.148H24.828a1.15,1.15,0,0,1-1.148-1.148v-4.9h1.788a3.128,3.128,0,0,0-.116.337,3.2,3.2,0,0,0-.125.891A3.274,3.274,0,1,0,31.65,27.6c-.034-.114-.071-.228-.116-.337h1.788Z" transform="translate(-18.501 -18.494)" fill="#fff"/>
  </g>
</svg>
