<svg xmlns="http://www.w3.org/2000/svg" width="21" height="21" viewBox="0 0 21 21">
  <g id="linkedin" transform="translate(0.5 0.5)">
    <circle id="Ellipse_3" data-name="Ellipse 3" cx="10" cy="10" r="10" transform="translate(0 0)" fill="none" stroke="#fff" stroke-width="1"/>
    <path id="Path_43" data-name="Path 43" d="M38.218,30.5v4.123h-2.39V30.777c0-.966-.345-1.625-1.211-1.625a1.307,1.307,0,0,0-1.226.874,1.636,1.636,0,0,0-.079.583v4.015h-2.39s.032-6.515,0-7.189h2.391v1.019c0,.008-.012.016-.016.024h.016v-.024a2.373,2.373,0,0,1,2.154-1.188C37.039,27.266,38.218,28.293,38.218,30.5Zm-9.8-6.532a1.246,1.246,0,1,0-.031,2.484H28.4a1.246,1.246,0,1,0,.016-2.484ZM27.21,34.624H29.6V27.434H27.21Z" transform="translate(-22.243 -19.696)" fill="#fff"/>
  </g>
</svg>
