<svg xmlns="http://www.w3.org/2000/svg" width="21" height="21" viewBox="0 0 21 21">
  <g id="pinterest" transform="translate(0.499 0.5)">
    <circle id="Ellipse_7" data-name="Ellipse 7" cx="10" cy="10" r="10" transform="translate(0.001 0)" fill="none" stroke="#fff" stroke-width="1"/>
    <path id="Path_47" data-name="Path 47" d="M34.638,33.6a3.382,3.382,0,0,1-1.667-.793c-.326,1.71-.724,3.349-1.9,4.2-.365-2.584.534-4.525.952-6.585-.712-1.2.086-3.609,1.587-3.015,1.847.731-1.6,4.454.714,4.919,2.416.486,3.4-4.191,1.9-5.713-2.164-2.2-6.3-.05-5.792,3.094.124.769.918,1,.317,2.063-1.385-.307-1.8-1.4-1.745-2.856a4.662,4.662,0,0,1,4.205-4.285c2.609-.292,5.057.958,5.4,3.412.38,2.77-1.178,5.769-3.967,5.554Z" transform="translate(-23.83 -20.209)" fill="#fff"/>
  </g>
</svg>
