<svg xmlns="http://www.w3.org/2000/svg" xmlns:xlink="http://www.w3.org/1999/xlink" width="120" height="120" viewBox="0 0 120 120">
  <defs>
    <filter id="Ellipse_2" x="0" y="0" width="120" height="120" filterUnits="userSpaceOnUse">
      <feOffset input="SourceAlpha"/>
      <feGaussianBlur stdDeviation="8" result="blur"/>
      <feFlood flood-color="#030404" flood-opacity="0.122"/>
      <feComposite operator="in" in2="blur"/>
      <feComposite in="SourceGraphic"/>
    </filter>
  </defs>
  <g id="Scroll_Down" data-name="Scroll Down" transform="translate(24 24)">
    <g transform="matrix(1, 0, 0, 1, -24, -24)" filter="url(#Ellipse_2)">
      <circle id="Ellipse_2-2" data-name="Ellipse 2" cx="36" cy="36" r="36" transform="translate(24 24)" fill="#fff"/>
    </g>
    <path id="Union_2" data-name="Union 2" d="M-9002.116-528.454l-4.465-4.236a1.469,1.469,0,0,1,0-2.167,1.664,1.664,0,0,1,2.286,0l3.3,3.126,3.293-3.126a1.664,1.664,0,0,1,2.286,0,1.466,1.466,0,0,1,0,2.167l-4.464,4.236A1.664,1.664,0,0,1-9001-528,1.663,1.663,0,0,1-9002.116-528.454Zm0-7.219-4.465-4.236a1.469,1.469,0,0,1,0-2.167,1.664,1.664,0,0,1,2.286,0l3.3,3.126,3.293-3.178a1.72,1.72,0,0,1,2.286.052,1.466,1.466,0,0,1,0,2.167l-4.464,4.236a1.664,1.664,0,0,1-1.115.455A1.664,1.664,0,0,1-9002.116-535.673ZM-9012-555.124v-10.185A10.855,10.855,0,0,1-9001-576a10.853,10.853,0,0,1,11,10.691v10.185a10.853,10.853,0,0,1-11,10.691A10.855,10.855,0,0,1-9012-555.124Zm3.114-10.185v10.185a7.775,7.775,0,0,0,7.887,7.665,7.775,7.775,0,0,0,7.887-7.665v-10.185a7.775,7.775,0,0,0-7.887-7.665A7.775,7.775,0,0,0-9008.886-565.309Zm6.373,1.26v-4.085a1.487,1.487,0,0,1,1.514-1.513,1.515,1.515,0,0,1,1.511,1.513v4.085a1.484,1.484,0,0,1-1.511,1.513A1.487,1.487,0,0,1-9002.513-564.049Z" transform="translate(9037 588)" fill="#5e6360"/>
  </g>
</svg>
