<svg id="share" xmlns="http://www.w3.org/2000/svg" width="24" height="24" viewBox="0 0 24 24">
  <rect id="bound" width="24" height="24" fill="none"/>
  <path id="Union_3" data-name="Union 3" d="M-9140.219-290.352a2.4,2.4,0,0,1,.382-1.3l-5.128-2.988a2.406,2.406,0,0,1-2.027,1.106,2.408,2.408,0,0,1-2.409-2.409,2.41,2.41,0,0,1,2.409-2.409,2.4,2.4,0,0,1,2.027,1.108l5.126-2.992a2.4,2.4,0,0,1-.38-1.3,2.41,2.41,0,0,1,2.411-2.409,2.408,2.408,0,0,1,2.406,2.409,2.407,2.407,0,0,1-2.408,2.409,2.408,2.408,0,0,1-2.029-1.11l-5.126,2.992a2.4,2.4,0,0,1,.381,1.3,2.4,2.4,0,0,1-.381,1.3l5.128,2.988a2.41,2.41,0,0,1,2.029-1.108,2.408,2.408,0,0,1,2.406,2.409,2.406,2.406,0,0,1-2.406,2.409A2.409,2.409,0,0,1-9140.219-290.352Z" transform="translate(9154.9 308.443)" fill="none" stroke="#030404" stroke-linecap="round" stroke-linejoin="round" stroke-width="2"/>
</svg>
