<svg xmlns="http://www.w3.org/2000/svg" width="21" height="21" viewBox="0 0 21 21">
  <g id="twitter" transform="translate(0.499 0.5)">
    <circle id="Ellipse_4" data-name="Ellipse 4" cx="10" cy="10" r="10" transform="translate(0.001 0)" fill="none" stroke="#fff" stroke-width="1"/>
    <path id="Path_44" data-name="Path 44" d="M36.754,35.149a4.769,4.769,0,0,1-1.373.376A2.4,2.4,0,0,0,36.432,34.2a4.785,4.785,0,0,1-1.518.58,2.392,2.392,0,0,0-4.073,2.18,6.785,6.785,0,0,1-4.927-2.5,2.393,2.393,0,0,0,.74,3.191,2.373,2.373,0,0,1-1.083-.3v.03a2.392,2.392,0,0,0,1.918,2.344,2.4,2.4,0,0,1-1.079.041,2.393,2.393,0,0,0,2.233,1.66,4.825,4.825,0,0,1-3.539.99A6.8,6.8,0,0,0,35.568,36.7c0-.1,0-.207-.007-.309A4.847,4.847,0,0,0,36.754,35.149Z" transform="translate(-20.627 -27.962)" fill="#fff"/>
  </g>
</svg>
